<svg xmlns="http://www.w3.org/2000/svg" width="85" height="64" viewBox="0 0 85 64"><g fill="none" fill-rule="evenodd"><path fill="#FFF" fill-opacity=".7" fill-rule="nonzero" d="M15.62 53.94c-.31-1.496-1.538-1.895-2.916-2.023-4.446-.41-5.233 2.909-5.233 4.31 0 2.396.702 4.38 5.064 4.38.806 0 3.028-.829 3.028-2.173h6.277c-.254 3.989-6.967 4.945-9.895 4.945-6.065 0-11.26-1.13-11.008-7.097.18-4.261 4.208-7.251 12.227-7.066 4.469.106 8.764 1.495 8.78 4.725H15.62zm62.873 0c-.307-1.496-1.538-1.895-2.914-2.023-4.446-.41-5.233 2.909-5.233 4.31 0 2.396.7 4.38 5.067 4.38.805 0 3.025-.829 3.025-2.173h6.278c-.255 3.989-6.965 4.945-9.895 4.945-6.066 0-11.259-1.13-11.009-7.097.18-4.261 4.21-7.251 12.23-7.066 4.468.106 8.761 1.495 8.78 4.725h-6.329zm-55.426-4.437h8.15l6.953 9.736h.055v-9.736h5.223v13.52H35.64l-7.294-9.739h-.055v9.739h-5.224v-13.52zm21.995 0h9.897c4.757 0 7.555 1.326 7.555 3.331 0 1.184-1.172 2.647-3.783 3.078v.039c3.144.187 4.304 2.172 4.304 3.362 0 2.383-2.727 3.71-8.048 3.71h-9.925v-13.52zm5.728 5.252h1.642c2.527 0 3.868-.198 3.868-1.245 0-1.125-1.117-1.497-3.392-1.497h-2.12v2.742h.002zm0 5.432h1.642c3.046 0 4.163-.32 4.163-1.367 0-1.124-1.41-1.499-3.685-1.499h-2.12v2.866z"/><path fill="#FFF" fill-opacity=".7" d="M26.413 17.81L37.78 43.794 14.328 27.743c-5.885-3.893-4.692-10.568-1.43-13.51 4.61-3.892 11.13-2.542 13.515 3.576zm15.58-6.119L37.86 40.775 26.095 13.123C23.552 6.21 29.274 1.68 33.091 1.601c4.373-.478 9.856 2.86 8.902 10.09zm17.888 1.353L48.195 40.777 44.46 15.745c-.32-3.814 2.068-3.893 2.943-4.609-.16-.557-1.351-.557-1.351-.557h-2.227c-.238-6.517 4.85-9.377 8.984-9.06 4.45.161 9.458 5.325 7.073 11.525zm11.926 14.54L48.356 43.719 59.405 18.05c3.339-8.105 11.13-6.516 13.912-3.417 3.02 3.019 3.894 9.139-1.51 12.953zm2.462 18.994H47.162l22.02-15.338c5.407-3.576 11.13-.318 12.64 4.37 1.591 5.246-1.988 10.968-7.553 10.968zM4.073 35.293c2.067-5.404 7.79-7.312 12.878-4.053l22.022 15.338H12.261c-5.566 0-9.936-5.087-8.188-11.285z"/><path d="M0 0H85V64H0z"/></g></svg>