<svg xmlns="http://www.w3.org/2000/svg" width="64" height="64" viewBox="0 0 64 64"><g fill="none" fill-rule="evenodd"><path fill="#FFF" fill-opacity=".7" fill-rule="nonzero" d="M31.928 63.83C14.31 63.83.032 49.55.032 31.933.032 14.313 14.309.032 31.928.032c17.618 0 31.898 14.281 31.898 31.901 0 17.618-14.28 31.897-31.898 31.897zM19.893 50.982h2.222v-36.22h-2.222v36.22zm-9.117-23.026c.039-2.308 3.995-2.374 3.995-.111l.037 1.963h3.024v-1.813c.196-6.065-10.198-6.056-10.118-.15v10.439c-.08 5.906 10.316 6.055 10.131 0v-2.19h-3.073v2.339c0 2.268-3.95 2.303-3.99 0V27.845l-.006.111zm17.279-2.36l-.012-1.66h-4.33v2.258l1.689.01v13.84l-1.424-.006v2.273h4.49V27.542l-.005.101c.035-2.188 3.67-2.255 3.67-.101l.003 14.77h5.003v-2.269h-1.946V27.686c-.098-1.656-.621-3.141-2.004-3.75.249.106-1.468-.862-3.222.11-1.384.767-1.912 1.55-1.912 1.55zM50.72 38.233c.096 1.656.62 3.142 2.002 3.755-.259-.12.673.345 1.634.336.505-.013 2.944-.01 2.944-.01v-2.27s-1.23-.016-1.885-.011c-.833.01-1.551-.385-1.612-1.555l.008-12.262-.008-.022h2.953v-2.223h-2.962l.017-.036V19.18h-3.09v19.053zm-5.563-2.14v2.34c0 2.268-3.951 2.303-3.992 0v-4.87l6.492.003c.307 0 .56-.251.56-.563v-5.008c.191-6.065-10.196-6.056-10.114-.15v10.439c-.082 5.906 10.316 6.055 10.125 0v-2.19h-3.07zm-3.992-8.264c.053-2.267 3.992-2.247 3.992.016l-.009 3.414-3.984.002v-3.432z"/><path d="M0 0H64V64H0z"/></g></svg>