<svg xmlns="http://www.w3.org/2000/svg" width="67" height="64" viewBox="0 0 67 64"><g fill="none" fill-rule="evenodd"><path fill="#FFF" fill-opacity=".7" d="M62.024 16.22v25.275c0 1.04-.87 1.317-1.414.562l-.133-.217a5810.216 5810.216 0 0 1-1.968-3.162c-1.59-2.557-3.18-5.117-4.705-7.576-2.984-4.814-5.149-8.321-6.165-9.996-1.116-1.545-3.334-.85-3.334 1.204v19.185c0 1.046-.813 1.313-1.354.562l-.135-.217a4781.65 4781.65 0 0 1-1.976-3.158 6097.87 6097.87 0 0 1-4.682-7.5l-.05-.081c-3-4.814-5.173-8.32-6.188-9.995-1.116-1.546-3.335-.85-3.335 1.204v19.063c0 .603-.471 1.087-1.087 1.087h-9.195c-6.871 0-11.12-4.616-11.104-10.647.017-5.977 4.225-10.65 10.739-10.65h5.54v3.889H16.12c-8.951 0-9.926 13.52.609 13.52H21.6c.608-.06 1.035-.548 1.035-1.096V21.884c0-5.786 7.429-8.587 11.386-1.827 4.02 6.882 6.333 10.902 6.333 10.902v-9.075c0-5.786 7.43-8.587 11.388-1.827 2.12 3.628 4.232 7.262 6.332 10.902V16.22h3.95zm.993 0h3.949v25.823c0 6.639-7.794 7.674-10.962 2.376-1.887-3.106-6.758-11.146-6.758-11.146v8.77c.06 6.64-7.734 7.674-10.961 2.376-1.887-3.106-6.698-11.145-6.698-11.145v7.917c0 4.081-2.375 6.213-6.09 6.213h-8.585c-21.983 0-22.165-31.183-.305-31.183h4.872v3.948h-5.541c-7.086 0-11.714 5.139-11.732 11.64-.018 6.565 4.658 11.644 12.097 11.644h9.195c1.17 0 2.08-.935 2.08-2.08V22.31c0-1.077.968-1.388 1.526-.638 1.001 1.654 3.17 5.154 6.16 9.954l.051.081a6098.665 6098.665 0 0 0 6.812 10.904c1.126 1.561 3.17.89 3.17-1.116V22.31c0-1.077.969-1.388 1.526-.637a1479.64 1479.64 0 0 0 6.18 10.019 7397.639 7397.639 0 0 0 6.63 10.673l.153.245c1.125 1.562 3.231.893 3.231-1.115V16.22z"/><path d="M0 0H67V64H0z"/></g></svg>