<svg xmlns="http://www.w3.org/2000/svg" width="116" height="64" viewBox="0 0 116 64"><g fill="none" fill-rule="evenodd"><path fill="#FFF" fill-opacity=".7" fill-rule="nonzero" d="M28.642 46.983c-2.002-.293-3.753-1.143-5.09-2.471-1.116-1.109-1.839-2.327-2.372-3.997-.832-2.607-.832-5.96 0-8.513.806-2.475 2.62-4.63 4.842-5.749 3.076-1.549 7.406-1.451 10.255.23 2.564 1.515 4.117 4.205 4.55 7.88.132 1.123.046 3.493-.162 4.471-.85 4.005-3.327 6.803-6.957 7.857-.39.113-.997.246-1.347.295-.74.104-3.002.102-3.72-.003zm2.995-1.608c.585-.175 1.306-.853 1.69-1.59.795-1.524 1.15-3.776 1.158-7.352.011-4.482-.69-7.334-2.168-8.828-.62-.627-1.06-.821-1.854-.82-1.762.003-2.88 1.847-3.322 5.48-.203 1.67-.204 5.648-.002 7.108.626 4.518 2.242 6.674 4.498 6.002zM64.1 46.982c-.82-.084-3.322-.501-4.197-.7l-.605-.139.048-3.24c.113-7.801.128-12.06.054-16.202-.072-4.057-.093-4.486-.249-5.086-.198-.76-.483-1.291-.826-1.536-.133-.095-.495-.23-.805-.3-1.028-.232-.972-.195-1-.665-.015-.271.014-.45.083-.505.093-.074 8.525-1.687 8.793-1.682.078 0 .089 1.082.049 4.805-.028 2.642-.032 4.804-.008 4.804s.332-.134.685-.298c1.063-.493 2.044-.707 3.468-.757.948-.033 1.388-.012 1.874.089 3.18.66 5.534 3.271 6.357 7.053.214.986.294 3.438.152 4.666-.122 1.046-.468 2.457-.829 3.372-1.36 3.453-4.279 5.706-8.15 6.291-.892.135-3.693.152-4.894.03zm3.309-1.647c.6-.115 1.065-.354 1.566-.805 1.254-1.13 2.196-3.466 2.567-6.358.151-1.178.13-3.863-.037-4.846-.452-2.66-1.425-4.408-2.844-5.112-.589-.291-.68-.312-1.378-.312-.5 0-.93.054-1.294.162l-.547.161-.04 3.027c-.052 3.878.073 13.585.179 13.864.067.178.141.215.476.242.787.062.917.06 1.352-.023zm20.427 1.606c-4.096-.741-7.025-3.655-7.982-7.94-.123-.551-.178-1.168-.208-2.361-.05-1.888.104-3.06.59-4.515.932-2.796 2.603-4.776 5.03-5.964 2.563-1.253 6.065-1.335 8.333-.195 2.553 1.284 4.055 3.846 4.436 7.568.052.501.081 1.097.066 1.325l-.027.414-6.11.021-6.109.022.023.724c.054 1.677.414 3.161 1.079 4.45.302.587.543.907 1.127 1.499 1.32 1.337 2.634 1.855 4.706 1.855 1.503 0 2.583-.301 3.713-1.034.316-.205.637-.373.713-.373.172 0 .57.513.57.736 0 .365-1.185 1.541-2.34 2.324-.947.642-2.448 1.222-3.75 1.45-.91.16-2.958.157-3.86-.006zm2.593-13.5l1.436-.05-.052-1.024c-.182-3.609-1.062-5.581-2.49-5.58-1.553.002-2.793 2.004-3.309 5.339-.063.41-.116.896-.116 1.08l-.002.335 1.548-.025c.852-.014 2.195-.047 2.985-.075zm13.92 13.58c-1.471-.158-3.812-.672-4.592-1.008l-.38-.164-.052-1.892c-.029-1.041-.062-2.432-.073-3.092l-.022-1.2.229-.11a1.76 1.76 0 0 1 .562-.125l.335-.016.285.704c1.112 2.746 2.417 4.227 4.121 4.678.65.172 1.869.173 2.35.003 1.348-.478 2.087-1.502 2.093-2.9.008-1.657-.9-2.452-4.328-3.796-2.125-.833-2.866-1.26-3.748-2.167-.952-.977-1.409-2.09-1.495-3.64-.103-1.871.48-3.45 1.775-4.795 1.303-1.353 2.994-2.087 5.298-2.298 2.028-.185 5.142.246 6.773.94l.298.126.053 1.686c.03.927.06 2.17.067 2.763l.014 1.077-.4.148c-.631.236-.673.206-1.024-.728-.986-2.62-2.13-3.858-3.915-4.237-1.087-.23-1.995.017-2.655.725-.515.552-.716 1.043-.765 1.867-.053.892.106 1.374.65 1.97.67.736 1.767 1.37 3.954 2.287 2.677 1.123 3.955 2.076 4.65 3.468.45.905.578 1.627.533 3.018-.034 1.044-.067 1.258-.304 1.959-.772 2.284-2.513 3.788-5.204 4.493-.912.239-1.042.25-2.854.27-1.044.012-2.048.006-2.23-.014zM.218 46.523c-.069-.027-.103-.234-.103-.616 0-.686-.044-.656 1.28-.902 1.015-.189 1.378-.382 1.826-.971.869-1.143 1.057-3.344 1.059-12.405.001-8.51-.162-10.3-1.06-11.615-.4-.583-1.071-.9-2.197-1.035l-.867-.104-.024-.68-.024-.678.272-.049c.15-.026 5.398-.038 11.663-.025l11.391.024.054.33c.029.183.077 2.052.107 4.154l.053 3.822-.587.179c-.884.27-.879.273-1.276-.783-.977-2.593-2.097-4.087-3.63-4.842-1.057-.52-1.546-.583-4.532-.583h-2.598l-.045.435c-.084.815-.216 6.06-.215 8.53v2.464l.764-.004a42.21 42.21 0 0 0 1.84-.069c.891-.053 1.156-.1 1.528-.274.915-.425 1.538-1.36 1.92-2.883l.196-.786.674-.025.674-.024v9.952l-.674-.024-.674-.024-.191-.787c-.36-1.478-1.052-2.536-1.907-2.916-.395-.175-1.372-.274-3.262-.332l-.888-.027v1.87c0 2.036.112 4.792.255 6.288.2 2.085.73 3.237 1.685 3.654.182.08.758.209 1.28.287.523.079 1.015.177 1.094.218.202.104.214 1.184.014 1.26-.156.061-14.726.056-14.875-.004zm40.617-.656l.024-.573.29-.061c.158-.034.5-.102.758-.15.8-.15 1.259-.585 1.517-1.438.211-.694.304-2.916.309-7.378.006-5.457-.108-6.746-.658-7.476-.298-.396-.513-.509-1.236-.648a88.174 88.174 0 0 1-.835-.164c-.166-.035-.186-.089-.186-.494 0-.395.025-.466.186-.533.247-.102 8.426-1.742 8.687-1.742h.204l-.04 1.222c-.022.672-.057 1.65-.078 2.174l-.038.952.296-.536c.949-1.716 2.013-2.78 3.427-3.431.777-.357 1.295-.464 2.254-.464 1.138 0 2.275.373 2.275.745 0 .25-2.004 5.564-2.115 5.606-.054.021-.445-.129-.87-.333-.885-.426-1.715-.635-2.521-.633-1.004.002-2.126.373-2.568.85-.19.203-.19.215-.238 3.258-.046 3.014.054 6.69.223 8.168.143 1.26.477 1.88 1.166 2.168.23.096 1.684.296 2.159.297.036 0 .054.289.041.642l-.024.642-6.11.02c-3.36.01-6.158-.012-6.217-.05-.075-.047-.1-.238-.082-.64z"/><path d="M0 0H116V64H0z"/></g></svg>