<svg xmlns="http://www.w3.org/2000/svg" width="136" height="40" viewBox="0 0 136 40"><path d="M6.204 28L.235 12.443l4.206-.423L8.39 22.9l3.83-10.88h4.254L10.48 28H6.204zm15.087 0V12.02H31.89l.399 3.36h-6.721v2.914h4.912l.399 3.361h-5.311v2.984h7.026l.4 3.361H21.291zm16.756 0V12.02h3.971l6.157 8.671V12.02h4.277V28h-3.995l-6.133-8.413V28h-4.277zm23.922 0V15.38h-4.7v-3.36h13.678l.399 3.36h-5.1V28H61.97zm14.194 0V12.02h4.278V28h-4.278zm9.8-7.92c0-2.46.697-4.472 2.092-6.039 1.394-1.567 3.29-2.35 5.686-2.35 2.601 0 4.552.799 5.852 2.397 1.3 1.598 1.95 3.54 1.95 5.828 0 2.475-.689 4.496-2.068 6.063-1.378 1.567-3.29 2.35-5.733 2.35-2.554 0-4.489-.803-5.805-2.409-1.316-1.606-1.974-3.552-1.974-5.84zm4.395-.023c0 1.347.258 2.467.775 3.36.517.894 1.379 1.34 2.585 1.34 1.097 0 1.943-.403 2.538-1.21.595-.807.893-2.017.893-3.631 0-1.332-.262-2.44-.787-3.325-.525-.885-1.383-1.328-2.573-1.328-1.066 0-1.904.439-2.515 1.316-.611.877-.916 2.037-.916 3.478zM107.066 28V12.02h3.971l6.157 8.671V12.02h4.278V28h-3.995l-6.134-8.413V28h-4.277zm24.812-13.74v-1.716h-.642v-.624h2.022l.072.624h-.702v1.716h-.75zm3.186 0v-1.02l-.222.246-.312.036-.288-.312v1.05h-.75v-2.34h.546l.648.762c.088-.124.188-.251.3-.381.112-.13.212-.257.3-.381h.534v2.34h-.756z" fill="#3456FA" fill-rule="evenodd"/></svg>