<svg xmlns="http://www.w3.org/2000/svg" width="48" height="40" viewBox="0 0 48 40"><g fill="none" fill-rule="evenodd"><path fill="#3456FA" d="M34.345 6.345A7.977 7.977 0 0 1 40 4c4.418 0 8 3.59 8 8a7.973 7.973 0 0 1-2.345 5.655l.002.002-16 16-11.314-11.314 16-16 .002.002zM37 12c0 1.653 1.343 3 3 3 1.653 0 3-1.343 3-3 0-1.653-1.343-3-3-3-1.653 0-3 1.343-3 3z"/><path fill="#000" fill-opacity=".12" d="M34.345 6.345A7.977 7.977 0 0 1 40 4c4.418 0 8 3.59 8 8a7.973 7.973 0 0 1-2.345 5.655l.002.002-16 16-11.314-11.314 16-16 .002.002zM37 12c0 1.653 1.343 3 3 3 1.653 0 3-1.343 3-3 0-1.653-1.343-3-3-3-1.653 0-3 1.343-3 3z"/><path fill="#3456FA" d="M18.345 33.655l-.002.002-16-16 .002-.002A7.977 7.977 0 0 1 0 12c0-4.418 3.59-8 8-8 2.208 0 4.208.897 5.655 2.345l.002-.002 16 16-.002.002A7.977 7.977 0 0 1 32 28c0 4.418-3.59 8-8 8a7.973 7.973 0 0 1-5.655-2.345zM5 12c0 1.653 1.343 3 3 3 1.653 0 3-1.343 3-3 0-1.653-1.343-3-3-3-1.653 0-3 1.343-3 3z"/></g></svg>